<svg width="40" height="40" viewBox="0 0 40 40" fill="none" xmlns="http://www.w3.org/2000/svg">
    <path
        d="M23.9136 30.016L17.6896 30.1922M23.9136 30.016C24.9809 30.016 26.1877 29.1982 26.1877 27.5625C26.1877 26.2074 25.4297 25.1644 23.9136 25.1089C19.7253 25.1089 15.483 25.0401 11.2446 25.0909C10.4549 25.1004 9.68775 25.3671 9.0435 25.8496L5.65252 28.3894C3.46915 30.0248 3.44522 32.7624 5.60525 34.432L6.74954 35.3164C7.81812 36.1424 9.24668 36.2268 10.3958 35.5318C10.903 35.2251 11.4774 35.0637 12.0619 35.0637L28.1979 35.064C29.3659 35.064 33.3031 30.232 35.1684 26.734C35.8019 25.3842 37.307 23.4731 36.4905 21.9228C35.6923 20.4071 33.719 20.949 32.5737 22.1787L28.1214 27.8432C27.3767 28.7907 26.2713 30.016 25.1056 30.016H23.9136Z"
        stroke="black" stroke-width="2" stroke-linecap="round" stroke-linejoin="round" />
    <circle cx="18.5" cy="7.5" r="3.5" stroke="#FFED4A" stroke-width="2" />
    <circle cx="24.5" cy="17.5" r="4.5" stroke="#FFED4A" stroke-width="2" />
</svg>
    