<svg width="40" height="40" viewBox="0 0 40 40" fill="none" xmlns="http://www.w3.org/2000/svg">
<circle cx="20" cy="20" r="20" fill="#F8F8F8"/>
<path d="M13.5 13.6667V16.3333M13.5 19V19C15.433 19 17 17.433 17 15.5V14.5C17 12.567 15.433 11 13.5 11V11C11.567 11 10 12.567 10 14.5V15.5C10 17.433 11.567 19 13.5 19Z" stroke="#171A19" stroke-width="2"/>
<path d="M25.5 24.6667V27.3333M25.5 30V30C27.433 30 29 28.433 29 26.5V25.5C29 23.567 27.433 22 25.5 22V22C23.567 22 22 23.567 22 25.5V26.5C22 28.433 23.567 30 25.5 30Z" stroke="#171A19" stroke-width="2"/>
<path fill-rule="evenodd" clip-rule="evenodd" d="M26.7241 11.919H23.8319V10H30V16.1681H28.081V13.2759L12.3569 29L11 27.6431L26.7241 11.919Z" fill="#171A19"/>
</svg>
