<svg width="25" height="24" viewBox="0 0 25 24" fill="none" xmlns="http://www.w3.org/2000/svg">
<path fill-rule="evenodd" clip-rule="evenodd" d="M3.51562 7.48828V5.24219C3.51562 4.01445 4.51447 3.01562 5.74219 3.01562H7.98828C8.26873 3.01562 8.49609 2.78826 8.49609 2.50781C8.49609 2.22736 8.26873 2 7.98828 2H5.74219C3.95445 2 2.5 3.45443 2.5 5.24219V7.48828C2.5 7.76873 2.72736 7.99609 3.00781 7.99609C3.28826 7.99609 3.51562 7.76873 3.51562 7.48828ZM7.98828 20.9844C8.26873 20.9844 8.49609 21.2117 8.49609 21.4922C8.49609 21.7726 8.26873 22 7.98828 22H5.74219C3.95445 22 2.5 20.5455 2.5 18.7578V16.5117C2.5 16.2313 2.72736 16.0039 3.00781 16.0039C3.28826 16.0039 3.51562 16.2313 3.51562 16.5117V18.7578C3.51562 19.9855 4.51447 20.9844 5.74219 20.9844H7.98828ZM22.5 16.5117V18.7578C22.5 20.5455 21.0455 22 19.2578 22H17.0117C16.7313 22 16.5039 21.7726 16.5039 21.4922C16.5039 21.2117 16.7313 20.9844 17.0117 20.9844H19.2578C20.4855 20.9844 21.4844 19.9855 21.4844 18.7578V16.5117C21.4844 16.2313 21.7117 16.0039 21.9922 16.0039C22.2726 16.0039 22.5 16.2313 22.5 16.5117ZM22.5 5.24219V7.48828C22.5 7.76873 22.2726 7.99609 21.9922 7.99609C21.7117 7.99609 21.4844 7.76873 21.4844 7.48828V5.24219C21.4844 4.01445 20.4855 3.01562 19.2578 3.01562H17.0117C16.7313 3.01562 16.5039 2.78826 16.5039 2.50781C16.5039 2.22736 16.7313 2 17.0117 2H19.2578C21.0455 2 22.5 3.45443 22.5 5.24219ZM16.0046 16.7819C16.2185 16.5843 16.2317 16.2507 16.0341 16.0367C15.8365 15.8228 15.5029 15.8096 15.2889 16.0071C14.5276 16.7104 13.5372 17.0976 12.5001 17.0976C11.463 17.0976 10.4725 16.7104 9.71126 16.0071C9.49728 15.8096 9.1637 15.8228 8.96607 16.0367C8.76845 16.2507 8.78167 16.5843 8.99562 16.7819C9.95236 17.6656 11.1969 18.1523 12.5001 18.1523C13.8033 18.1523 15.0478 17.6656 16.0046 16.7819ZM13.5547 9.53906V13.2891C13.5547 14.0322 12.9501 14.6367 12.207 14.6367H11.7773C11.4861 14.6367 11.25 14.4006 11.25 14.1094C11.25 13.8181 11.4861 13.582 11.7773 13.582H12.207C12.3686 13.582 12.5 13.4506 12.5 13.2891V9.53906C12.5 9.24781 12.7361 9.01172 13.0273 9.01172C13.3186 9.01172 13.5547 9.24781 13.5547 9.53906ZM17.1875 11.0137V9.50977C17.1875 9.23471 16.9645 9.01172 16.6895 9.01172C16.4144 9.01172 16.1914 9.23471 16.1914 9.50977V11.0137C16.1914 11.2887 16.4144 11.5117 16.6895 11.5117C16.9645 11.5117 17.1875 11.2887 17.1875 11.0137ZM7.92969 11.0137C7.92969 11.2887 8.15268 11.5117 8.42773 11.5117C8.70279 11.5117 8.92578 11.2887 8.92578 11.0137V9.50977C8.92578 9.23471 8.70279 9.01172 8.42773 9.01172C8.15268 9.01172 7.92969 9.23471 7.92969 9.50977V11.0137Z" fill="#171A19"/>
<path d="M16.0341 16.0367L16.2178 15.8671L16.2178 15.8671L16.0341 16.0367ZM16.0046 16.7819L16.1742 16.9656L16.1742 16.9656L16.0046 16.7819ZM15.2889 16.0071L15.1193 15.8235L15.1193 15.8235L15.2889 16.0071ZM9.71126 16.0071L9.8809 15.8235L9.88087 15.8235L9.71126 16.0071ZM8.96607 16.0367L8.78244 15.8671L8.78242 15.8671L8.96607 16.0367ZM8.99562 16.7819L8.82599 16.9656L8.82599 16.9656L8.99562 16.7819ZM3.26562 5.24219V7.48828H3.76562V5.24219H3.26562ZM5.74219 2.76562C4.3764 2.76562 3.26562 3.87638 3.26562 5.24219H3.76562C3.76562 4.15253 4.65254 3.26562 5.74219 3.26562V2.76562ZM7.98828 2.76562H5.74219V3.26562H7.98828V2.76562ZM8.24609 2.50781C8.24609 2.65019 8.13066 2.76562 7.98828 2.76562V3.26562C8.4068 3.26562 8.74609 2.92633 8.74609 2.50781H8.24609ZM7.98828 2.25C8.13066 2.25 8.24609 2.36543 8.24609 2.50781H8.74609C8.74609 2.08929 8.4068 1.75 7.98828 1.75V2.25ZM5.74219 2.25H7.98828V1.75H5.74219V2.25ZM2.75 5.24219C2.75 3.59251 4.09252 2.25 5.74219 2.25V1.75C3.81638 1.75 2.25 3.31636 2.25 5.24219H2.75ZM2.75 7.48828V5.24219H2.25V7.48828H2.75ZM3.00781 7.74609C2.86543 7.74609 2.75 7.63066 2.75 7.48828H2.25C2.25 7.9068 2.58929 8.24609 3.00781 8.24609V7.74609ZM3.26562 7.48828C3.26562 7.63066 3.15019 7.74609 3.00781 7.74609V8.24609C3.42633 8.24609 3.76562 7.9068 3.76562 7.48828H3.26562ZM8.74609 21.4922C8.74609 21.0737 8.4068 20.7344 7.98828 20.7344V21.2344C8.13066 21.2344 8.24609 21.3498 8.24609 21.4922H8.74609ZM7.98828 22.25C8.4068 22.25 8.74609 21.9107 8.74609 21.4922H8.24609C8.24609 21.6346 8.13066 21.75 7.98828 21.75V22.25ZM5.74219 22.25H7.98828V21.75H5.74219V22.25ZM2.25 18.7578C2.25 20.6836 3.81638 22.25 5.74219 22.25V21.75C4.09252 21.75 2.75 20.4075 2.75 18.7578H2.25ZM2.25 16.5117V18.7578H2.75V16.5117H2.25ZM3.00781 15.7539C2.58929 15.7539 2.25 16.0932 2.25 16.5117H2.75C2.75 16.3693 2.86543 16.2539 3.00781 16.2539V15.7539ZM3.76562 16.5117C3.76562 16.0932 3.42633 15.7539 3.00781 15.7539V16.2539C3.15019 16.2539 3.26562 16.3693 3.26562 16.5117H3.76562ZM3.76562 18.7578V16.5117H3.26562V18.7578H3.76562ZM5.74219 20.7344C4.65254 20.7344 3.76562 19.8475 3.76562 18.7578H3.26562C3.26562 20.1236 4.3764 21.2344 5.74219 21.2344V20.7344ZM7.98828 20.7344H5.74219V21.2344H7.98828V20.7344ZM22.75 18.7578V16.5117H22.25V18.7578H22.75ZM19.2578 22.25C21.1836 22.25 22.75 20.6836 22.75 18.7578H22.25C22.25 20.4075 20.9075 21.75 19.2578 21.75V22.25ZM17.0117 22.25H19.2578V21.75H17.0117V22.25ZM16.2539 21.4922C16.2539 21.9107 16.5932 22.25 17.0117 22.25V21.75C16.8693 21.75 16.7539 21.6346 16.7539 21.4922H16.2539ZM17.0117 20.7344C16.5932 20.7344 16.2539 21.0737 16.2539 21.4922H16.7539C16.7539 21.3498 16.8693 21.2344 17.0117 21.2344V20.7344ZM19.2578 20.7344H17.0117V21.2344H19.2578V20.7344ZM21.2344 18.7578C21.2344 19.8475 20.3475 20.7344 19.2578 20.7344V21.2344C20.6236 21.2344 21.7344 20.1236 21.7344 18.7578H21.2344ZM21.2344 16.5117V18.7578H21.7344V16.5117H21.2344ZM21.9922 15.7539C21.5737 15.7539 21.2344 16.0932 21.2344 16.5117H21.7344C21.7344 16.3693 21.8498 16.2539 21.9922 16.2539V15.7539ZM22.75 16.5117C22.75 16.0932 22.4107 15.7539 21.9922 15.7539V16.2539C22.1346 16.2539 22.25 16.3693 22.25 16.5117H22.75ZM22.75 7.48828V5.24219H22.25V7.48828H22.75ZM21.9922 8.24609C22.4107 8.24609 22.75 7.9068 22.75 7.48828H22.25C22.25 7.63066 22.1346 7.74609 21.9922 7.74609V8.24609ZM21.2344 7.48828C21.2344 7.9068 21.5737 8.24609 21.9922 8.24609V7.74609C21.8498 7.74609 21.7344 7.63066 21.7344 7.48828H21.2344ZM21.2344 5.24219V7.48828H21.7344V5.24219H21.2344ZM19.2578 3.26562C20.3475 3.26562 21.2344 4.15253 21.2344 5.24219H21.7344C21.7344 3.87638 20.6236 2.76562 19.2578 2.76562V3.26562ZM17.0117 3.26562H19.2578V2.76562H17.0117V3.26562ZM16.2539 2.50781C16.2539 2.92633 16.5932 3.26562 17.0117 3.26562V2.76562C16.8693 2.76562 16.7539 2.65019 16.7539 2.50781H16.2539ZM17.0117 1.75C16.5932 1.75 16.2539 2.08929 16.2539 2.50781H16.7539C16.7539 2.36543 16.8693 2.25 17.0117 2.25V1.75ZM19.2578 1.75H17.0117V2.25H19.2578V1.75ZM22.75 5.24219C22.75 3.31636 21.1836 1.75 19.2578 1.75V2.25C20.9075 2.25 22.25 3.59251 22.25 5.24219H22.75ZM15.8505 16.2063C15.9544 16.3189 15.9474 16.4943 15.8349 16.5983L16.1742 16.9656C16.4896 16.6742 16.5091 16.1824 16.2178 15.8671L15.8505 16.2063ZM15.4585 16.1908C15.5711 16.0869 15.7465 16.0938 15.8505 16.2064L16.2178 15.8671C15.9264 15.5517 15.4347 15.5322 15.1193 15.8235L15.4585 16.1908ZM12.5001 17.3476C13.6 17.3476 14.6511 16.9367 15.4586 16.1908L15.1193 15.8235C14.4042 16.484 13.4744 16.8476 12.5001 16.8476V17.3476ZM9.54163 16.1908C10.3491 16.9367 11.4001 17.3476 12.5001 17.3476V16.8476C11.5258 16.8476 10.5959 16.484 9.8809 15.8235L9.54163 16.1908ZM9.1497 16.2064C9.25365 16.0938 9.42909 16.0869 9.54166 16.1908L9.88087 15.8235C9.56546 15.5322 9.07376 15.5517 8.78244 15.8671L9.1497 16.2064ZM9.16525 16.5983C9.05274 16.4943 9.04577 16.3189 9.14971 16.2063L8.78242 15.8671C8.49113 16.1825 8.51061 16.6742 8.82599 16.9656L9.16525 16.5983ZM12.5001 17.9023C11.2597 17.9023 10.0758 17.4393 9.16525 16.5983L8.82599 16.9656C9.82894 17.892 11.1341 18.4023 12.5001 18.4023V17.9023ZM15.8349 16.5983C14.9244 17.4393 13.7404 17.9023 12.5001 17.9023V18.4023C13.8661 18.4023 15.1712 17.892 16.1742 16.9656L15.8349 16.5983ZM13.8047 13.2891V9.53906H13.3047V13.2891H13.8047ZM12.207 14.8867C13.0882 14.8867 13.8047 14.1702 13.8047 13.2891H13.3047C13.3047 13.8941 12.8121 14.3867 12.207 14.3867V14.8867ZM11.7773 14.8867H12.207V14.3867H11.7773V14.8867ZM11 14.1094C11 14.5387 11.348 14.8867 11.7773 14.8867V14.3867C11.6242 14.3867 11.5 14.2626 11.5 14.1094H11ZM11.7773 13.332C11.348 13.332 11 13.6801 11 14.1094H11.5C11.5 13.9562 11.6242 13.832 11.7773 13.832V13.332ZM12.207 13.332H11.7773V13.832H12.207V13.332ZM12.25 13.2891C12.25 13.3125 12.2305 13.332 12.207 13.332V13.832C12.5066 13.832 12.75 13.5887 12.75 13.2891H12.25ZM12.25 9.53906V13.2891H12.75V9.53906H12.25ZM13.0273 8.76172C12.598 8.76172 12.25 9.10974 12.25 9.53906H12.75C12.75 9.38588 12.8742 9.26172 13.0273 9.26172V8.76172ZM13.8047 9.53906C13.8047 9.10974 13.4567 8.76172 13.0273 8.76172V9.26172C13.1805 9.26172 13.3047 9.38588 13.3047 9.53906H13.8047ZM16.9375 9.50977V11.0137H17.4375V9.50977H16.9375ZM16.6895 9.26172C16.8264 9.26172 16.9375 9.37278 16.9375 9.50977H17.4375C17.4375 9.09664 17.1026 8.76172 16.6895 8.76172V9.26172ZM16.4414 9.50977C16.4414 9.37278 16.5525 9.26172 16.6895 9.26172V8.76172C16.2763 8.76172 15.9414 9.09664 15.9414 9.50977H16.4414ZM16.4414 11.0137V9.50977H15.9414V11.0137H16.4414ZM16.6895 11.2617C16.5525 11.2617 16.4414 11.1507 16.4414 11.0137H15.9414C15.9414 11.4268 16.2763 11.7617 16.6895 11.7617V11.2617ZM16.9375 11.0137C16.9375 11.1507 16.8264 11.2617 16.6895 11.2617V11.7617C17.1026 11.7617 17.4375 11.4268 17.4375 11.0137H16.9375ZM8.42773 11.2617C8.29075 11.2617 8.17969 11.1507 8.17969 11.0137H7.67969C7.67969 11.4268 8.0146 11.7617 8.42773 11.7617V11.2617ZM8.67578 11.0137C8.67578 11.1507 8.56472 11.2617 8.42773 11.2617V11.7617C8.84086 11.7617 9.17578 11.4268 9.17578 11.0137H8.67578ZM8.67578 9.50977V11.0137H9.17578V9.50977H8.67578ZM8.42773 9.26172C8.56472 9.26172 8.67578 9.37278 8.67578 9.50977H9.17578C9.17578 9.09664 8.84086 8.76172 8.42773 8.76172V9.26172ZM8.17969 9.50977C8.17969 9.37278 8.29075 9.26172 8.42773 9.26172V8.76172C8.0146 8.76172 7.67969 9.09664 7.67969 9.50977H8.17969ZM8.17969 11.0137V9.50977H7.67969V11.0137H8.17969Z" fill="#171A19"/>
</svg>
