<svg width="13" height="17" viewBox="0 0 13 17" fill="none" xmlns="http://www.w3.org/2000/svg">
<path d="M6.50361 11.1142C6.74989 11.1142 6.95933 10.9078 6.95933 10.6556V2.42314L6.929 1.31474L7.59417 2.01797L8.86311 3.37096C8.94545 3.46269 9.06461 3.50852 9.17655 3.50852C9.40838 3.50852 9.59472 3.33271 9.59472 3.09577C9.59472 2.96586 9.54272 2.87413 9.46039 2.7824L6.83223 0.152859C6.72028 0.0382509 6.6235 0 6.50361 0C6.38445 0 6.28695 0.0382509 6.175 0.152859L3.54683 2.7824C3.45727 2.87413 3.40528 2.96586 3.40528 3.09577C3.40528 3.33271 3.58439 3.50852 3.82345 3.50852C3.93539 3.50852 4.06178 3.46269 4.14412 3.37096L5.41378 2.01797L6.07822 1.31474L6.04788 2.42314V10.6556C6.04788 10.9078 6.25734 11.1142 6.50361 11.1142ZM2.20278 17H10.7972C12.2532 17 13 16.2356 13 14.768V6.9559C13 5.48066 12.2532 4.71629 10.7972 4.71629H8.66884V5.66412H10.7748C11.6039 5.66412 12.0741 6.12276 12.0741 7.0018V14.7145C12.0741 15.6012 11.6039 16.0522 10.7748 16.0522H2.21794C1.38161 16.0522 0.925887 15.6012 0.925887 14.7145V7.0018C0.925887 6.12276 1.38161 5.66412 2.21794 5.66412H4.33839V4.71629H2.20278C0.74678 4.71629 0 5.47301 0 6.9559V14.768C0 16.2433 0.74678 17 2.20278 17Z" fill="black"/>
</svg>
