<svg width="40" height="40" viewBox="0 0 40 40" fill="none" xmlns="http://www.w3.org/2000/svg">
<path fill-rule="evenodd" clip-rule="evenodd" d="M12.4349 24L13.6295 22V16.3714C13.6295 12.8526 16.4821 10 20.0009 10C23.5197 10 26.3723 12.8526 26.3723 16.3714V22L27.5669 24L28.7616 26H26.4319H13.5699H11.2402L12.4349 24ZM24.6553 23.0256L25.2373 24H14.7645L15.3465 23.0256L15.6295 22.5518V22V16.3714C15.6295 13.9571 17.5866 12 20.0009 12C22.4151 12 24.3723 13.9571 24.3723 16.3714V22V22.5518L24.6553 23.0256ZM18 28H17V30H18H22H23V28H22H18Z" fill="#171A19"/>
<circle cx="30" cy="10" r="9" fill="#FFED4A" stroke="#F8F8F8" stroke-width="2"/>
<path d="M27.5943 13C27.5276 13 27.471 12.9767 27.4243 12.93C27.3776 12.8833 27.3543 12.8267 27.3543 12.76V12.25C27.3543 12.19 27.3676 12.12 27.3943 12.04C27.4276 11.9533 27.4976 11.8667 27.6043 11.78L29.1843 10.21C29.6243 9.86333 29.9776 9.57 30.2443 9.33C30.5176 9.08333 30.7143 8.86 30.8343 8.66C30.961 8.45333 31.0243 8.25 31.0243 8.05C31.0243 7.75 30.941 7.50667 30.7743 7.32C30.6143 7.13333 30.3576 7.04 30.0043 7.04C29.771 7.04 29.5743 7.09 29.4143 7.19C29.2543 7.28333 29.1276 7.41 29.0343 7.57C28.9476 7.73 28.8876 7.90667 28.8543 8.1C28.841 8.18667 28.8043 8.24667 28.7443 8.28C28.6843 8.31333 28.6243 8.33 28.5643 8.33H27.6743C27.6143 8.33 27.5643 8.31 27.5243 8.27C27.4843 8.23 27.4643 8.18333 27.4643 8.13C27.471 7.84333 27.531 7.56667 27.6443 7.3C27.7576 7.02667 27.921 6.78667 28.1343 6.58C28.3543 6.36667 28.621 6.19667 28.9343 6.07C29.2476 5.94333 29.601 5.88 29.9943 5.88C30.5476 5.88 31.0043 5.97333 31.3643 6.16C31.731 6.34667 32.0043 6.6 32.1843 6.92C32.371 7.24 32.4643 7.6 32.4643 8C32.4643 8.31333 32.4043 8.60333 32.2843 8.87C32.1643 9.13 31.991 9.38333 31.7643 9.63C31.5376 9.87 31.2643 10.1167 30.9443 10.37L29.5243 11.81H32.3743C32.4476 11.81 32.5043 11.8333 32.5443 11.88C32.591 11.92 32.6143 11.9767 32.6143 12.05V12.76C32.6143 12.8267 32.591 12.8833 32.5443 12.93C32.5043 12.9767 32.4476 13 32.3743 13H27.5943Z" fill="#171A19"/>
</svg>
