<svg width="24" height="24" viewBox="0 0 24 24" fill="none" xmlns="http://www.w3.org/2000/svg">
<path fill-rule="evenodd" clip-rule="evenodd" d="M4.43487 16L5.62951 14V8.37139C5.62951 4.85257 8.48207 2 12.0009 2C15.5197 2 18.3723 4.85257 18.3723 8.37139V14L19.5669 16L20.7616 18H18.4319H5.56986H3.24023L4.43487 16ZM16.6553 15.0256L17.2373 16H6.76449L7.34652 15.0256L7.62951 14.5518V14V8.37139C7.62951 5.95714 9.58664 4 12.0009 4C14.4151 4 16.3723 5.95714 16.3723 8.37139V14V14.5518L16.6553 15.0256ZM10 20H9V22H10H14H15V20H14H10Z" fill="#171A19"/>
</svg>
