<svg width="28" height="28" viewBox="0 0 28 28" fill="none" xmlns="http://www.w3.org/2000/svg">
<path d="M19.3703 13.4029L19.4418 13.4766L19.5136 13.4033L24.0715 8.74776L24.1396 8.67813L24.0718 8.60818L19.5348 3.93038L19.4634 3.85672L19.3916 3.93004L18.2525 5.0933L18.1843 5.16293L18.2522 5.23288L20.6718 7.72781L10.0017 7.71732L9.90171 7.71722L9.90161 7.81722L9.9 9.46724L9.8999 9.56724L9.9999 9.56734L20.6989 9.57783L18.2364 12.0935L18.1683 12.1631L18.2361 12.2331L19.3703 13.4029Z" fill="black" stroke="black" stroke-width="0.2"/>
<path d="M8.62967 24.0022L8.55823 24.0759L8.48642 24.0025L3.92854 19.347L3.86037 19.2774L3.92822 19.2074L8.46519 14.5296L8.53664 14.456L8.60843 14.5293L9.74749 15.6925L9.81567 15.7622L9.74783 15.8321L7.32815 18.3271L17.9983 18.3166L18.0983 18.3165L18.0984 18.4165L18.1 20.0665L18.1001 20.1665L18.0001 20.1666L7.3011 20.1771L9.76358 22.6928L9.83173 22.7624L9.76392 22.8323L8.62967 24.0022Z" fill="black" stroke="black" stroke-width="0.2"/>
</svg>
